<svg width="19" height="19" viewBox="0 0 19 19" fill="none" xmlns="http://www.w3.org/2000/svg">
<path d="M0 2C0 0.895431 0.895431 0 2 0H9.5C14.7467 0 19 4.2533 19 9.5V9.5C19 14.7467 14.7467 19 9.5 19V19C4.2533 19 0 14.7467 0 9.5V2Z" fill="#252843"/>
<path d="M8.259 12V11.524L10.254 9.599C10.4313 9.431 10.562 9.284 10.646 9.158C10.7347 9.02733 10.793 8.90833 10.821 8.801C10.8537 8.689 10.87 8.58167 10.87 8.479C10.87 8.227 10.7813 8.02867 10.604 7.884C10.4267 7.73933 10.1677 7.667 9.827 7.667C9.56567 7.667 9.33 7.71133 9.12 7.8C8.91 7.884 8.728 8.017 8.574 8.199L8.098 7.786C8.28467 7.548 8.53433 7.366 8.847 7.24C9.16433 7.10933 9.512 7.044 9.89 7.044C10.2307 7.044 10.527 7.1 10.779 7.212C11.031 7.31933 11.2247 7.47567 11.36 7.681C11.5 7.88633 11.57 8.129 11.57 8.409C11.57 8.56767 11.549 8.724 11.507 8.878C11.465 9.032 11.3857 9.19533 11.269 9.368C11.1523 9.54067 10.9843 9.73433 10.765 9.949L8.987 11.664L8.819 11.391H11.78V12H8.259Z" fill="white"/>
</svg>
