<svg width="19" height="19" viewBox="0 0 19 19" fill="none" xmlns="http://www.w3.org/2000/svg">
<path d="M0 2C0 0.895431 0.895431 0 2 0H9.5C14.7467 0 19 4.2533 19 9.5V9.5C19 14.7467 14.7467 19 9.5 19V19C4.2533 19 0 14.7467 0 9.5V2Z" fill="#252843"/>
<path d="M9.918 12.056C9.57267 12.056 9.23667 12.0023 8.91 11.895C8.588 11.7877 8.32433 11.643 8.119 11.461L8.441 10.908C8.60433 11.062 8.81667 11.188 9.078 11.286C9.33933 11.384 9.617 11.433 9.911 11.433C10.2843 11.433 10.5713 11.3537 10.772 11.195C10.9727 11.0363 11.073 10.824 11.073 10.558C11.073 10.376 11.0287 10.2173 10.94 10.082C10.8513 9.94667 10.6973 9.844 10.478 9.774C10.2633 9.69933 9.967 9.662 9.589 9.662H8.476L8.735 7.1H11.5V7.709H8.994L9.358 7.366L9.155 9.389L8.791 9.053H9.736C10.226 9.053 10.6203 9.116 10.919 9.242C11.2177 9.368 11.4347 9.543 11.57 9.767C11.7053 9.98633 11.773 10.2407 11.773 10.53C11.773 10.81 11.7053 11.0667 11.57 11.3C11.4347 11.5287 11.2293 11.713 10.954 11.853C10.6833 11.9883 10.338 12.056 9.918 12.056Z" fill="white"/>
</svg>
