<svg width="19" height="19" viewBox="0 0 19 19" fill="none" xmlns="http://www.w3.org/2000/svg">
<path d="M0 2C0 0.895431 0.895431 0 2 0H9.5C14.7467 0 19 4.2533 19 9.5V9.5C19 14.7467 14.7467 19 9.5 19V19C4.2533 19 0 14.7467 0 9.5V2Z" fill="#252843"/>
<path d="M9.834 12.056C9.48867 12.056 9.15267 12.0023 8.826 11.895C8.504 11.7877 8.24033 11.643 8.035 11.461L8.357 10.908C8.52033 11.062 8.73267 11.188 8.994 11.286C9.25533 11.384 9.53533 11.433 9.834 11.433C10.198 11.433 10.4803 11.356 10.681 11.202C10.8863 11.0433 10.989 10.831 10.989 10.565C10.989 10.3083 10.891 10.103 10.695 9.949C10.5037 9.79033 10.198 9.711 9.778 9.711H9.386V9.221L10.842 7.429L10.94 7.709H8.259V7.1H11.493V7.576L10.044 9.361L9.68 9.144H9.911C10.5037 9.144 10.947 9.277 11.241 9.543C11.5397 9.809 11.689 10.1473 11.689 10.558C11.689 10.8333 11.6213 11.0853 11.486 11.314C11.3507 11.5427 11.1453 11.7247 10.87 11.86C10.5993 11.9907 10.254 12.056 9.834 12.056Z" fill="white"/>
</svg>
